<?xml version="1.0" ?><svg id="Layer_1" style="enable-background:new 0 0 512 512;" version="1.1" viewBox="0 0 512 512" xml:space="preserve" xmlns="http://www.w3.org/2000/svg" xmlns:xlink="http://www.w3.org/1999/xlink"><style type="text/css">
	.st0{fill:url(#SVGID_1_);}
</style><linearGradient gradientUnits="userSpaceOnUse" id="SVGID_1_" x1="173.6404" x2="359.6404" y1="4.7802" y2="564.7802"><stop offset="0" style="stop-color:#11A4DC"/><stop offset="0.5051" style="stop-color:#0F94C9"/><stop offset="1" style="stop-color:#0C82B4"/></linearGradient><path class="st0" d="M257.2,100.7c-9.1,0-18,0.8-26.6,2.3c-13.9-8.8-30.4-13.9-48-13.9c-49.9,0-90.3,40.4-90.3,90.3  c0,16.7,4.5,32.3,12.4,45.7c-2.1,10.1-3.1,20.6-3.1,31.3c0,86,69.7,155.7,155.7,155.7c9.7,0,19.3-0.9,28.5-2.6  c12.7,6.8,27.2,10.7,42.7,10.7c49.9,0,90.3-40.4,90.3-90.3c0-14.4-3.4-28-9.4-40.1c2.4-10.8,3.6-21.9,3.6-33.4  C412.9,170.4,343.2,100.7,257.2,100.7z M337,330.7c-7.2,10.2-17.8,18.3-31.6,24c-13.7,5.7-30,8.6-48.6,8.6  c-22.4,0-41.1-3.9-55.7-11.7c-10.5-5.6-19.1-13.3-25.6-22.8c-6.6-9.5-10-19-10-28.1c0-5.7,2.2-10.6,6.5-14.7c4.3-4,9.7-6,16.3-6  c5.3,0,10,1.6,13.7,4.8c3.6,3,6.6,7.5,9.1,13.3c2.8,6.3,5.8,11.7,8.9,15.8c3.1,4.1,7.4,7.4,13.1,10.1c5.6,2.7,13.3,4,22.6,4  c12.9,0,23.4-2.7,31.4-8.2c7.8-5.3,11.5-11.6,11.5-19.4c0-6.1-2-11-6-14.8c-4.3-4-9.8-7-16.6-9.2c-7.1-2.2-16.7-4.6-28.6-7.1  c-16.2-3.5-29.9-7.6-40.8-12.2c-11.2-4.8-20.2-11.3-26.8-19.6c-6.7-8.4-10.1-18.9-10.1-31.2c0-11.8,3.6-22.4,10.6-31.5  c7-9.1,17.1-16.2,30.2-21c12.9-4.8,28.3-7.2,45.7-7.2c13.9,0,26.1,1.6,36.3,4.8c10.3,3.2,18.9,7.5,25.7,12.8  c6.8,5.4,11.9,11.1,15.1,17c3.2,6,4.9,12,4.9,17.7c0,5.6-2.1,10.6-6.4,15c-4.3,4.4-9.6,6.7-16,6.7c-5.8,0-10.3-1.4-13.4-4.2  c-2.9-2.6-5.9-6.6-9.3-12.4c-3.9-7.4-8.6-13.2-14-17.3c-5.2-4-14-6-26-6c-11.2,0-20.2,2.2-27,6.7c-6.5,4.2-9.7,9.1-9.7,14.9  c0,3.6,1,6.5,3.1,9.1c2.2,2.7,5.3,5.1,9.3,7.1c4.1,2.1,8.3,3.7,12.5,4.9c4.3,1.2,11.6,3,21.5,5.3c12.6,2.7,24.2,5.7,34.4,9  c10.4,3.3,19.3,7.4,26.6,12.2c7.4,4.9,13.4,11.1,17.5,18.5c4.2,7.5,6.3,16.7,6.3,27.4C348,308.8,344.3,320.5,337,330.7z"/></svg>